# xmcd CD database file generated by OrangeCD 6.4
#
# Track frame offsets:
#	150
#	14704
#	22702
#	44271
#	79785
#	96569
#	144282
#	169116
#	202895
#	253219
#	254502
#
# Disc length: 3513 seconds
#
# Revision: 0
# Processed by: cddbd v1.5.2PL0 Copyright (c) Steve Scherf et al.
# Submitted via: OrangeCD 6.4
#
DISCID=900db70b
DTITLE=John Sinclair and His Blues Scholars - Fattening Frogs For Snakes, Vol. 2:
DTITLE=Country Blues
DYEAR=1900
DGENRE=
TTITLE0=It's Just Air Music
TTITLE1=Heart Like Railroad Steel
TTITLE2=Some Of These Days
TTITLE3=Screamin' and Hollerin' The Blues
TTITLE4=Preachin' The Blues
TTITLE5=Country Blues
TTITLE6=Walkin' Blues
TTITLE7=Come On In My Kitchen
TTITLE8=Hellhound On My Trail
TTITLE9=[Silence]
TTITLE10=The Healer
EXTD=
EXTT0=
EXTT1=
EXTT2=
EXTT3=
EXTT4=
EXTT5=
EXTT6=
EXTT7=
EXTT8=
EXTT9=
EXTT10=
PLAYORDER=
